<mxfile host="app.diagrams.net" modified="2021-07-29T02:23:39.055Z" agent="5.0 (Macintosh; Intel Mac OS X 10_15_7) AppleWebKit/537.36 (KHTML, like Gecko) Chrome/90.0.4430.212 Safari/537.36" etag="-J8B8fTdxwY18LBFRcIa" version="14.8.5" type="github">
  <diagram id="DF-CYjWvTKp4_uonpDw1" name="Page-1">
    <mxGraphModel dx="1298" dy="808" grid="1" gridSize="10" guides="1" tooltips="1" connect="1" arrows="1" fold="1" page="1" pageScale="1" pageWidth="827" pageHeight="1169" math="0" shadow="0">
      <root>
        <mxCell id="0" />
        <mxCell id="1" parent="0" />
        <mxCell id="R6PfkZe7wR7GaLmwO6dH-2" value="" style="rounded=1;whiteSpace=wrap;html=1;fillColor=#d5e8d4;strokeColor=#82b366;" vertex="1" parent="1">
          <mxGeometry x="50" y="70" width="100" height="40" as="geometry" />
        </mxCell>
        <mxCell id="R6PfkZe7wR7GaLmwO6dH-3" value="" style="rounded=1;whiteSpace=wrap;html=1;fillColor=#d5e8d4;strokeColor=#82b366;" vertex="1" parent="1">
          <mxGeometry x="50" y="130" width="100" height="40" as="geometry" />
        </mxCell>
        <mxCell id="R6PfkZe7wR7GaLmwO6dH-4" value="" style="rounded=1;whiteSpace=wrap;html=1;fillColor=#d5e8d4;strokeColor=#82b366;" vertex="1" parent="1">
          <mxGeometry x="50" y="190" width="100" height="40" as="geometry" />
        </mxCell>
        <mxCell id="R6PfkZe7wR7GaLmwO6dH-5" value="" style="rounded=1;whiteSpace=wrap;html=1;fillColor=#d5e8d4;strokeColor=#82b366;" vertex="1" parent="1">
          <mxGeometry x="300" y="70" width="100" height="40" as="geometry" />
        </mxCell>
        <mxCell id="R6PfkZe7wR7GaLmwO6dH-6" value="" style="rounded=1;whiteSpace=wrap;html=1;fillColor=#d5e8d4;strokeColor=#82b366;" vertex="1" parent="1">
          <mxGeometry x="300" y="130" width="100" height="40" as="geometry" />
        </mxCell>
        <mxCell id="R6PfkZe7wR7GaLmwO6dH-7" value="" style="rounded=1;whiteSpace=wrap;html=1;fillColor=#d5e8d4;strokeColor=#82b366;" vertex="1" parent="1">
          <mxGeometry x="300" y="190" width="100" height="40" as="geometry" />
        </mxCell>
        <mxCell id="R6PfkZe7wR7GaLmwO6dH-8" value="" style="endArrow=classic;html=1;exitX=1;exitY=0.5;exitDx=0;exitDy=0;entryX=0;entryY=0.5;entryDx=0;entryDy=0;" edge="1" parent="1" source="R6PfkZe7wR7GaLmwO6dH-2" target="R6PfkZe7wR7GaLmwO6dH-5">
          <mxGeometry width="50" height="50" relative="1" as="geometry">
            <mxPoint x="390" y="440" as="sourcePoint" />
            <mxPoint x="440" y="390" as="targetPoint" />
          </mxGeometry>
        </mxCell>
        <mxCell id="R6PfkZe7wR7GaLmwO6dH-9" value="" style="endArrow=classic;html=1;exitX=1;exitY=0.5;exitDx=0;exitDy=0;entryX=0;entryY=0.5;entryDx=0;entryDy=0;" edge="1" parent="1" source="R6PfkZe7wR7GaLmwO6dH-3" target="R6PfkZe7wR7GaLmwO6dH-6">
          <mxGeometry width="50" height="50" relative="1" as="geometry">
            <mxPoint x="160" y="100" as="sourcePoint" />
            <mxPoint x="310" y="100" as="targetPoint" />
          </mxGeometry>
        </mxCell>
        <mxCell id="R6PfkZe7wR7GaLmwO6dH-10" value="" style="endArrow=classic;html=1;exitX=1;exitY=0.5;exitDx=0;exitDy=0;entryX=0;entryY=0.5;entryDx=0;entryDy=0;" edge="1" parent="1" source="R6PfkZe7wR7GaLmwO6dH-4" target="R6PfkZe7wR7GaLmwO6dH-7">
          <mxGeometry width="50" height="50" relative="1" as="geometry">
            <mxPoint x="160" y="160" as="sourcePoint" />
            <mxPoint x="310" y="160" as="targetPoint" />
          </mxGeometry>
        </mxCell>
        <mxCell id="R6PfkZe7wR7GaLmwO6dH-11" value="&lt;font color=&quot;#ff0000&quot;&gt;&lt;b&gt;X&lt;/b&gt;&lt;/font&gt;" style="text;html=1;strokeColor=none;fillColor=none;align=center;verticalAlign=middle;whiteSpace=wrap;rounded=0;" vertex="1" parent="1">
          <mxGeometry x="200" y="80" width="40" height="20" as="geometry" />
        </mxCell>
        <mxCell id="R6PfkZe7wR7GaLmwO6dH-12" value="&lt;font color=&quot;#ff0000&quot;&gt;&lt;b&gt;X&lt;/b&gt;&lt;/font&gt;" style="text;html=1;strokeColor=none;fillColor=none;align=center;verticalAlign=middle;whiteSpace=wrap;rounded=0;" vertex="1" parent="1">
          <mxGeometry x="330" y="140" width="40" height="20" as="geometry" />
        </mxCell>
        <mxCell id="R6PfkZe7wR7GaLmwO6dH-13" value="Paddle Op" style="text;html=1;strokeColor=none;fillColor=none;align=center;verticalAlign=middle;whiteSpace=wrap;rounded=0;" vertex="1" parent="1">
          <mxGeometry x="70" y="30" width="40" height="20" as="geometry" />
        </mxCell>
        <mxCell id="R6PfkZe7wR7GaLmwO6dH-14" value="Third-party Engine" style="text;html=1;strokeColor=none;fillColor=none;align=center;verticalAlign=middle;whiteSpace=wrap;rounded=0;" vertex="1" parent="1">
          <mxGeometry x="320" y="30" width="60" height="20" as="geometry" />
        </mxCell>
      </root>
    </mxGraphModel>
  </diagram>
</mxfile>
